<?xml version="1.0" encoding="utf-8"?>
<!-- Generator: Adobe Illustrator 16.0.0, SVG Export Plug-In . SVG Version: 6.00 Build 0)  -->
<!DOCTYPE svg PUBLIC "-//W3C//DTD SVG 1.1//EN" "http://www.w3.org/Graphics/SVG/1.1/DTD/svg11.dtd">
<svg version="1.1" id="图层_3" xmlns="http://www.w3.org/2000/svg" xmlns:xlink="http://www.w3.org/1999/xlink" x="0px" y="0px"
	 width="192px" height="192px" viewBox="0 0 192 192" enable-background="new 0 0 192 192" xml:space="preserve">
<path fill="#EA4335" d="M168.878,87.398c-0.714,4.829-3.006,5.199-5.802,5.199c-3.058,0.217-5.715-2.085-5.932-5.143
	c-0.012-0.145-0.015-0.29-0.014-0.435c0.067-2.036,0.479-4.046,1.218-5.945c1.982-6.852,1.318-14.199-1.864-20.583
	c-6.062-10.37-17.585-16.282-29.543-15.158c-1.753,0.593-3.55,1.04-5.375,1.335c-3.34-0.037-6.017-2.773-5.98-6.112
	c0-0.017,0.001-0.035,0.001-0.052c-0.017-2.746,1.751-5.184,4.367-6.021l0.143-0.151c0.219,0,0.36-0.227,0.571-0.227
	c6.737-1.522,13.722-1.597,20.49-0.218C156.987,37.65,178.687,53.605,168.878,87.398L168.878,87.398z M125.689,64.581
	c-2.272-0.063-4.082-1.925-4.081-4.199c-0.061-2.316,1.765-4.244,4.081-4.308c0,0,25.605-4.946,22.489,23.564
	c-0.097,2.202-1.879,3.955-4.082,4.014c-2.302-0.023-4.156-1.896-4.156-4.199C140.008,79.445,144.021,60.324,125.689,64.581
	L125.689,64.581z M127.765,72.609c3.937,4.896,4.394,11.731,1.142,17.105c0,0-2.863,3.268,3.006,4.46
	c11.825,2.358,19.501,13.855,17.143,25.681c-0.503,2.528-1.451,4.948-2.799,7.146c-10.246,22.59-44.054,33.666-69.122,31.584
	c-23.791-1.934-54.45-10.179-57.6-40.125c-0.105-11.342,3.773-22.363,10.959-31.139c0,0,18.189-26.386,39.393-33.96
	c21.204-7.575,23.707,5.198,23.707,12.705c-1.142,6.391-3.225,10.078,4.728,7.508C98.321,73.802,119.165,63.691,127.765,72.609
	L127.765,72.609z M78.981,88.951c-24.857,1.192-44.986,15.016-44.986,32.331c0,17.316,20.154,30.173,44.986,28.98
	c24.833-1.191,45.054-17.392,45.054-34.632C124.035,98.39,103.839,87.768,78.981,88.951L78.981,88.951z M58.566,139.338
	c-4.113-2.426-6.66-6.823-6.718-11.597c-1.739-13.338,7.662-25.56,20.999-27.3c0.373-0.048,0.746-0.089,1.12-0.119
	c11.284-2.481,22.442,4.654,24.923,15.938c1.221,5.551,0.131,11.359-3.021,16.091c-8.818,11.537-24.925,14.553-37.32,6.986H58.566z
	 M67.317,119.426c-4.447,0.588-7.831,4.286-8.02,8.768c0.243,3.818,3.537,6.717,7.355,6.473c0.367-0.023,0.733-0.075,1.093-0.157
	c4.46-0.361,8.02-3.868,8.448-8.322c-0.2-4.025-3.625-7.125-7.651-6.926C68.13,119.28,67.72,119.336,67.317,119.426z
	 M83.793,116.453c-0.903-1.365-2.742-1.741-4.107-0.837c-0.172,0.113-0.333,0.245-0.478,0.394c-1.504,1.188-1.955,3.276-1.075,4.979
	c0.881,1.31,2.655,1.654,3.963,0.773c0.144-0.096,0.279-0.207,0.403-0.328C83.989,120.244,84.516,118.217,83.793,116.453z"/>
</svg>
